<svg width="36" height="28" viewBox="0 0 36 28" fill="none" xmlns="http://www.w3.org/2000/svg">
<path d="M31.5 22.1667V14.3115C31.5 13.6785 31.3344 13.0522 31.0134 12.4705C30.6923 11.8889 30.2225 11.3641 29.6325 10.9282L20.067 3.86167C19.5095 3.4497 18.7698 3.22 18.0007 3.22C17.2317 3.22 16.492 3.4497 15.9345 3.86167L6.3675 10.9282C5.77748 11.3641 5.30765 11.8889 4.98661 12.4705C4.66556 13.0522 4.5 13.6785 4.5 14.3115V22.1667C4.5 22.7855 4.81607 23.379 5.37868 23.8166C5.94129 24.2542 6.70435 24.5 7.5 24.5H28.5C29.2956 24.5 30.0587 24.2542 30.6213 23.8166C31.1839 23.379 31.5 22.7855 31.5 22.1667Z" stroke="#9B9B9B" stroke-width="2" stroke-linecap="round" stroke-linejoin="round"/>
</svg>
