<svg width="32" height="29" viewBox="0 0 32 29" fill="none" xmlns="http://www.w3.org/2000/svg">
<path d="M16 0C18.4162 0.00125678 20.8007 0.49501 22.9746 1.44421C25.1485 2.3934 27.0553 3.77339 28.5519 5.48062C30.0486 7.18784 31.0961 9.17795 31.616 11.3016C32.1359 13.4253 32.1146 15.6273 31.5537 17.7425C30.9929 19.8577 29.907 21.8312 28.3776 23.5147C26.8483 25.1982 24.9151 26.5482 22.7232 27.4632C20.5312 28.3782 18.1375 28.8345 15.7217 28.798C13.3058 28.7614 10.9305 28.2328 8.774 27.252L8.532 27.135L1.242 28.773C1.1017 28.8048 0.95542 28.8087 0.813249 28.7847C0.671078 28.7606 0.536402 28.709 0.418517 28.6336C0.300631 28.5581 0.202342 28.4605 0.130432 28.3475C0.0585217 28.2346 0.0147029 28.1089 0.00199986 27.9792V27.8316L0.0300002 27.6822L1.85 21.123L1.724 20.907C0.808769 19.2855 0.24538 17.5218 0.0640001 15.7104L0.0139999 15.0228L0 14.4C0 10.5809 1.68571 6.91819 4.68629 4.21766C7.68687 1.51714 11.7565 0 16 0ZM16 1.8C13.5569 1.79964 11.1563 2.37467 9.03661 3.46795C6.91694 4.56123 5.15205 6.13469 3.91733 8.03198C2.6826 9.92926 2.02102 12.0843 1.99833 14.283C1.97565 16.4817 2.59264 18.6474 3.788 20.565C3.8808 20.7141 3.92451 20.8839 3.914 21.0546L3.886 21.2238L2.374 26.6616L8.422 25.3044C8.54495 25.2771 8.67253 25.271 8.798 25.2864L8.98 25.3242L9.154 25.3944C11.0207 26.3349 13.102 26.8779 15.2382 26.9817C17.3744 27.0855 19.5086 26.7473 21.4769 25.993C23.4453 25.2388 25.1954 24.0887 26.5929 22.6309C27.9903 21.1731 28.998 19.4465 29.5386 17.5836C30.0791 15.7207 30.1381 13.7711 29.711 11.8845C29.2839 9.99787 28.3821 8.22445 27.0748 6.70039C25.7675 5.17633 24.0895 3.94217 22.1697 3.09269C20.2499 2.2432 18.1393 1.80099 16 1.8ZM17 16.2C17.2499 16.1996 17.4909 16.2834 17.6756 16.4349C17.8602 16.5864 17.9752 16.7947 17.9978 17.0187C18.0203 17.2427 17.9489 17.4661 17.7976 17.6451C17.6462 17.8241 17.4259 17.9455 17.18 17.9856L17 18H11C10.7501 18.0004 10.5091 17.9166 10.3244 17.7651C10.1398 17.6136 10.0248 17.4053 10.0022 17.1813C9.97967 16.9573 10.0511 16.7339 10.2024 16.5549C10.3538 16.3759 10.5741 16.2545 10.82 16.2144L11 16.2H17ZM21 10.8C21.2499 10.7996 21.4909 10.8834 21.6756 11.0349C21.8602 11.1864 21.9752 11.3947 21.9978 11.6187C22.0203 11.8427 21.9489 12.0661 21.7976 12.2451C21.6462 12.4241 21.4259 12.5455 21.18 12.5856L21 12.6H11C10.7501 12.6004 10.5091 12.5166 10.3244 12.3651C10.1398 12.2136 10.0248 12.0053 10.0022 11.7813C9.97967 11.5573 10.0511 11.3339 10.2024 11.1549C10.3538 10.9759 10.5741 10.8545 10.82 10.8144L11 10.8H21Z" fill="#9B9B9B"/>
</svg>
